<svg width="356" height="25" viewBox="0 0 356 25" fill="none" xmlns="http://www.w3.org/2000/svg">
<path d="M89.1885 0H53.9562C53.4275 0 53 0.428138 53 0.956241V23.1162C53 23.6443 53.4275 24.0724 53.9562 24.0724H89.1885C89.7173 24.0724 90.1448 23.6443 90.1448 23.1162V0.956241C90.1448 0.428138 89.7173 0 89.1885 0ZM55.876 7.2744H59.8403C60.375 7.29479 60.8058 7.46512 60.9544 8.03663L61.8166 12.1832C60.9696 10.0142 58.9282 8.2096 55.8431 7.46249L55.876 7.2744ZM60.6729 16.7316L58.383 8.90803C60.0291 9.96161 61.4312 11.6334 61.9251 12.7968L62.1921 13.7629L64.6965 7.3645H67.4061L63.3792 16.7296L60.6729 16.7316ZM69.3975 16.7382H66.8405L68.4393 7.35464H70.9976L69.3975 16.7382ZM73.8472 16.8789C72.7009 16.8671 71.5967 16.6402 70.9982 16.3778L71.358 14.2778L71.6875 14.4271C72.5273 14.7777 73.0712 14.9197 74.0952 14.9197C74.8298 14.9197 75.617 14.6323 75.6242 14.0036C75.6288 13.5926 75.2948 13.2992 74.2991 12.8389C73.3283 12.3904 72.0433 11.638 72.0591 10.2904C72.0729 8.46674 73.8538 7.19417 76.3812 7.19417C77.3716 7.19417 78.1654 7.39804 78.6718 7.58811L78.3266 9.62226L78.0957 9.51374C77.6248 9.32434 77.0191 9.14151 76.1819 9.15466C75.181 9.15466 74.7167 9.57162 74.7167 9.96161C74.7114 10.4009 75.2586 10.6903 76.153 11.1257C77.6281 11.7952 78.3101 12.6074 78.3009 13.6748C78.2812 15.6215 76.5364 16.8789 73.8472 16.8789ZM84.9288 16.7421C84.9288 16.7421 84.6954 15.6635 84.6178 15.336C84.2455 15.336 81.6359 15.3321 81.3426 15.3321C81.2433 15.5853 80.8053 16.7421 80.8053 16.7421H78.1201L81.9168 8.14317C82.1864 7.53221 82.6435 7.3645 83.2564 7.3645H85.232L87.3017 16.7415L84.9288 16.7421Z" fill="white"/>
<path d="M83.6089 10.7044L83.4366 9.89551C83.3064 10.2487 83.0821 10.8162 83.0966 10.7912C83.0966 10.7912 82.2883 12.8741 82.0779 13.414H84.2015C84.0989 12.9438 83.6089 10.7044 83.6089 10.7044Z" fill="white"/>
<path d="M114.116 9.81379C113.966 9.71514 113.741 9.66516 113.447 9.66516L113.195 9.66648C113.03 9.66516 112.861 9.79801 112.829 9.95848L112.596 10.9581C112.56 11.1199 112.663 11.2521 112.831 11.2521H113.019C113.436 11.2521 113.76 11.1673 113.992 10.9963C114.224 10.8266 114.343 10.5852 114.338 10.2728C114.339 10.0663 114.265 9.91178 114.116 9.81379Z" fill="white"/>
<path d="M118.227 12.1178C118.181 12.1191 117.833 12.1586 117.657 12.1803C117.46 12.2086 117.289 12.248 117.15 12.2947L116.824 12.517C116.748 12.613 116.711 12.7353 116.711 12.8925L116.86 13.1806C116.961 13.2371 117.109 13.2648 117.299 13.2648C117.424 13.2648 117.559 13.2345 117.701 13.1766L118.004 13.0208L118.123 12.8616C118.171 12.6762 118.269 12.2638 118.28 12.2125L118.227 12.1178Z" fill="white"/>
<path d="M142.333 0H107.101C106.572 0 106.145 0.428138 106.145 0.956241V23.1155C106.145 23.6436 106.572 24.0724 107.101 24.0724H142.333C142.862 24.0724 143.29 23.6443 143.29 23.1162V0.956241C143.29 0.428138 142.862 0 142.333 0ZM115.013 11.6775C114.489 12.0628 113.761 12.2549 112.819 12.2562H112.599C112.43 12.2562 112.265 12.389 112.23 12.5482L111.966 13.6912C111.928 13.8543 111.763 13.9845 111.596 13.9845H110.827C110.66 13.9845 110.555 13.8504 110.595 13.6912L111.676 8.98038C111.716 8.81859 111.88 8.68903 112.047 8.6864L113.654 8.68575C114.001 8.68903 114.302 8.71008 114.562 8.75743C114.819 8.8061 115.042 8.88765 115.232 9.0034C115.413 9.11783 115.56 9.27107 115.652 9.45653C115.755 9.64199 115.8 9.87414 115.8 10.1504C115.8 10.7817 115.54 11.2921 115.013 11.6775ZM119.789 11.0763L119.76 11.2743L119.198 13.7024C119.165 13.8484 119.02 13.9727 118.867 13.9904L118.857 13.9944H118.746H118.155H118.141L118.139 13.9918C117.992 13.978 117.901 13.8537 117.933 13.7037V13.7024L117.934 13.6978L117.963 13.5741L117.959 13.5695L117.669 13.7609L117.353 13.9372L116.981 14.0648C116.867 14.0924 116.706 14.1088 116.498 14.1088C116.17 14.1088 115.895 14.0187 115.687 13.8326C115.48 13.6425 115.374 13.3999 115.374 13.1026C115.374 12.7869 115.447 12.5199 115.593 12.2976C115.745 12.0767 115.962 11.9043 116.256 11.7754C116.529 11.6511 116.857 11.5591 117.232 11.5071C117.614 11.4519 117.93 11.4118 118.367 11.3841L118.478 11.3157L118.492 11.2072C118.492 11.0402 118.414 10.9251 118.26 10.8573C118.103 10.7916 117.868 10.7587 117.56 10.7587C117.351 10.7561 117.088 10.7988 116.838 10.8554C116.577 10.9146 116.506 10.9534 116.378 10.9915C116.319 11.0119 116.176 11.0218 116.229 10.7745L116.323 10.3871C116.323 10.3871 116.369 10.0945 116.662 10.0307C116.804 9.9991 116.826 9.99318 117.057 9.95766C117.369 9.90965 117.678 9.88532 117.988 9.88532C118.615 9.88532 119.074 9.96687 119.364 10.1306C119.655 10.2937 119.804 10.5489 119.802 10.8915L119.789 11.0763ZM121.026 15.8602L120.229 15.8615C120.063 15.8615 120.008 15.73 120.11 15.5682L120.792 14.3791C120.792 14.3791 120.846 14.3114 120.797 13.9234C120.692 13.2223 120.169 10.2418 120.169 10.2418C120.131 10.0806 120.233 9.94846 120.399 9.94846L121.089 9.94714C121.3 9.94714 121.47 10.0859 121.508 10.249L121.851 12.316L121.979 12.3174C122.086 12.1273 123.188 10.2359 123.188 10.2359C123.293 10.0767 123.506 9.94188 123.672 9.94188C123.672 9.94188 124.413 9.94385 124.595 9.94188C124.869 9.93793 124.574 10.3812 124.574 10.3812L121.507 15.5682C121.408 15.73 121.19 15.8602 121.026 15.8602ZM128.995 11.6978C128.469 12.0813 127.737 12.2753 126.795 12.2753H126.576C126.41 12.2726 126.244 12.4075 126.206 12.5666L125.946 13.7116C125.908 13.8714 125.739 14.0029 125.576 14.001L124.805 14.0029C124.641 14.0036 124.533 13.8708 124.572 13.7109L125.655 8.99748C125.694 8.83767 125.856 8.70745 126.023 8.70482L127.633 8.7035C127.978 8.70482 128.282 8.72915 128.537 8.77453C128.797 8.82188 129.02 8.90343 129.207 9.01984C129.391 9.13756 129.535 9.28816 129.631 9.47494C129.729 9.65909 129.777 9.8919 129.779 10.1681C129.779 10.7988 129.515 11.3078 128.995 11.6978ZM133.768 11.0796L133.74 11.2789L133.177 13.705C133.145 13.8517 133 13.976 132.848 13.9944L132.838 13.9983H132.727C132.568 13.9983 132.233 13.9983 132.136 13.9983H132.122L132.121 13.9944C131.972 13.9806 131.88 13.8569 131.916 13.7063L131.915 13.7044L131.918 13.7017L131.944 13.5781L131.939 13.5722L131.651 13.7662L131.333 13.9418L130.962 14.0674C130.847 14.097 130.685 14.1095 130.48 14.1128C130.151 14.1128 129.878 14.0194 129.669 13.8346C129.462 13.6465 129.354 13.4025 129.354 13.1039C129.354 12.7902 129.427 12.5219 129.575 12.3009C129.725 12.0799 129.946 11.9083 130.236 11.7781C130.511 11.6531 130.841 11.5624 131.214 11.5097C131.594 11.4545 131.91 11.4144 132.351 11.3874L132.461 11.3177L132.473 11.2092C132.473 11.0435 132.397 10.9271 132.24 10.86C132.084 10.7936 131.848 10.7607 131.542 10.7607C131.331 10.7594 131.068 10.8014 130.819 10.8573C130.559 10.9179 130.489 10.9553 130.362 10.9935C130.297 11.0126 130.159 11.0237 130.211 10.7765L130.305 10.3897C130.305 10.3897 130.349 10.0964 130.643 10.0333C130.786 10.0024 130.809 9.99515 131.039 9.96161C131.35 9.91163 131.661 9.88729 131.971 9.88729C132.595 9.88729 133.053 9.97016 133.346 10.1339C133.639 10.297 133.786 10.5509 133.786 10.8935L133.768 11.0796ZM136.234 9.03628L135.203 13.7063L135.167 13.7616C135.106 13.8931 134.975 13.9997 134.834 13.9997H134.118L134.105 13.9832C133.969 13.9622 133.88 13.8523 133.913 13.709L133.911 13.7057L133.942 13.5709L134.906 9.18952L134.941 9.03694L134.979 8.97709C135.042 8.84819 135.169 8.74362 135.311 8.74362H135.999C136.167 8.74362 136.268 8.87449 136.232 9.03496L136.234 9.03628ZM137.601 8.53119H137.343V8.87384L137.345 8.96591L137.363 9.02773L137.403 9.06719L137.482 9.07969L137.547 9.07048L137.595 9.05601H137.601V9.16847L137.524 9.1836L137.451 9.18952L137.276 9.12704L137.216 8.92974V8.53119H137.129V8.42465H137.216V8.21091H137.343V8.42465H137.601V8.53119ZM138.847 8.68838V9.17307H138.723V8.74559L138.715 8.65418L138.698 8.58184L138.655 8.53909L138.571 8.52396L138.467 8.55092L138.36 8.61866L138.362 8.65549L138.363 8.69495V9.17439H138.238V8.74691L138.233 8.65418L138.215 8.58249L138.173 8.53974L138.088 8.52462L137.985 8.55027L137.88 8.61538V9.17439H137.757V8.42531H137.88V8.50883L138 8.43255L138.124 8.40492L138.254 8.43583L138.334 8.52528L138.472 8.43255L138.607 8.40492L138.789 8.47924L138.848 8.68838H138.847Z" fill="white"/>
<path d="M132.207 12.1216C132.161 12.1209 131.815 12.1617 131.641 12.1841C131.442 12.2123 131.271 12.2511 131.134 12.2985C130.993 12.3537 130.879 12.4281 130.804 12.5208C130.731 12.6168 130.694 12.7391 130.694 12.897L130.845 13.1844C130.941 13.2416 131.087 13.2692 131.283 13.2692C131.406 13.2692 131.541 13.239 131.682 13.1817L131.983 13.0259L132.107 12.8667C132.153 12.6793 132.253 12.2682 132.261 12.2169L132.207 12.1216Z" fill="white"/>
<path d="M128.092 9.83142C127.94 9.73211 127.719 9.68344 127.424 9.68213L127.174 9.68344C127.008 9.68213 126.839 9.81629 126.805 9.9761L126.572 10.9751C126.535 11.1356 126.642 11.2697 126.809 11.2684H127C127.416 11.2684 127.739 11.1829 127.972 11.0159C128.202 10.8442 128.319 10.6048 128.318 10.2898C128.314 10.0846 128.242 9.93007 128.092 9.83142Z" fill="white"/>
<path d="M169.188 10.4388C168.492 10.4388 167.959 10.6624 167.959 10.6624L167.811 11.5371C167.811 11.5371 168.251 11.3583 168.918 11.3583C169.296 11.3583 169.572 11.4003 169.572 11.7075C169.572 11.8942 169.539 11.9633 169.539 11.9633C169.539 11.9633 169.241 11.939 169.102 11.939C168.225 11.939 167.302 12.3125 167.302 13.443C167.302 14.3335 167.907 14.5367 168.282 14.5367C168.999 14.5367 169.308 14.0724 169.323 14.0711L169.29 14.4591H170.184L170.582 11.6641C170.582 10.477 169.547 10.4388 169.188 10.4388ZM168.687 13.6864C168.372 13.6864 168.29 13.4463 168.29 13.303C168.29 13.0254 168.44 12.6913 169.184 12.6913C169.358 12.692 169.376 12.7098 169.405 12.715C169.425 12.886 169.298 13.6864 168.687 13.6864Z" fill="white"/>
<path d="M172.416 11.3765C172.558 11.3765 173.109 11.4218 173.109 11.4218L173.237 10.5261C173.237 10.5261 172.881 10.4465 172.301 10.4465C171.55 10.4465 170.788 10.7464 170.788 11.7717C170.788 12.9345 172.059 12.8161 172.059 13.3067C172.059 13.6329 171.704 13.6599 171.43 13.6599C170.956 13.6599 170.53 13.4981 170.528 13.5047L170.393 14.3932C170.417 14.3997 170.68 14.5168 171.532 14.5168C171.76 14.5168 173.067 14.576 173.067 13.2271C173.067 11.9657 171.857 12.215 171.857 11.7079C171.857 11.4554 172.054 11.3765 172.416 11.3765Z" fill="white"/>
<path d="M174.551 11.4905H175.089L175.218 10.5356H174.712L174.815 9.94373H173.8C173.778 9.96543 173.201 13.282 173.201 13.6845C173.201 14.2836 173.537 14.5493 174.01 14.5447C174.38 14.5421 174.669 14.4395 174.771 14.4112L174.898 13.5484C174.828 13.5484 174.726 13.5786 174.636 13.5786C174.283 13.5786 174.244 13.3899 174.266 13.2511L174.551 11.4905Z" fill="white"/>
<path d="M178.804 5.95032H176.993C176.75 6.27915 176.521 6.62902 176.314 6.97101H179.545C179.321 6.61456 179.073 6.27389 178.804 5.95032Z" fill="white"/>
<path d="M192.937 17.4328C192.917 17.4031 192.901 17.3807 192.887 17.3669C192.88 17.3603 192.871 17.353 192.859 17.3497C192.887 17.3477 192.911 17.3372 192.928 17.3194C192.945 17.3016 192.954 17.2805 192.954 17.2561C192.954 17.2389 192.949 17.2224 192.939 17.2073C192.929 17.1921 192.914 17.1809 192.897 17.1749C192.88 17.1683 192.852 17.165 192.813 17.165H192.698V17.4981H192.752V17.357H192.783C192.802 17.357 192.817 17.3609 192.825 17.3688C192.839 17.3801 192.859 17.4058 192.882 17.446L192.911 17.4988H192.978L192.937 17.4328ZM192.817 17.3128H192.751V17.2125H192.813C192.839 17.2125 192.856 17.2145 192.866 17.2185C192.876 17.2224 192.883 17.2284 192.889 17.2356C192.894 17.2435 192.897 17.2521 192.897 17.2613C192.897 17.2765 192.891 17.2897 192.88 17.2989C192.869 17.3075 192.847 17.3128 192.817 17.3128Z" fill="white"/>
<path d="M180.094 7.97302H175.749C175.471 8.49849 175.287 8.89572 175.235 8.99437H180.506C180.387 8.64318 180.25 8.30317 180.094 7.97302Z" fill="white"/>
<path d="M166.059 9.63062L165.059 12.5967L165.007 9.63062H163.526L162.714 14.4638H163.693L164.311 10.8203L164.402 14.4638H165.101L166.405 10.8203L165.827 14.4638H166.866L167.666 9.63062H166.059Z" fill="white"/>
<path d="M185.641 10.4388C184.944 10.4388 184.412 10.6624 184.412 10.6624L184.264 11.5371C184.264 11.5371 184.704 11.3583 185.37 11.3583C185.748 11.3583 186.025 11.4003 186.025 11.7075C186.025 11.8942 185.99 11.9633 185.99 11.9633C185.99 11.9633 185.693 11.939 185.553 11.939C184.676 11.939 183.755 12.3125 183.755 13.443C183.755 14.3335 184.36 14.5367 184.734 14.5367C185.45 14.5367 185.759 14.0724 185.776 14.0711L185.742 14.4591H186.635L187.034 11.6641C187.036 10.477 186 10.4388 185.641 10.4388ZM185.142 13.6864C184.826 13.6864 184.744 13.4463 184.744 13.303C184.744 13.0254 184.895 12.6913 185.639 12.6913C185.812 12.692 185.83 12.7098 185.86 12.715C185.879 12.886 185.752 13.6864 185.142 13.6864Z" fill="white"/>
<path d="M192.968 14.0187C192.941 13.9687 192.902 13.9306 192.853 13.9043C192.804 13.8773 192.754 13.8641 192.701 13.8641C192.651 13.8648 192.6 13.8779 192.55 13.9043C192.501 13.9306 192.463 13.9687 192.435 14.0187C192.407 14.068 192.394 14.1193 192.394 14.1726C192.394 14.2258 192.407 14.2765 192.435 14.3252C192.462 14.3738 192.5 14.4126 192.549 14.4402C192.598 14.4672 192.649 14.481 192.701 14.481C192.755 14.481 192.807 14.4672 192.855 14.4402C192.903 14.4126 192.941 14.3738 192.968 14.3252C192.997 14.2765 193.009 14.2258 193.009 14.1726C193.009 14.118 192.996 14.0667 192.968 14.0187ZM192.926 14.2995C192.903 14.3403 192.872 14.3712 192.83 14.3955C192.79 14.4179 192.747 14.4297 192.703 14.4297C192.659 14.4297 192.616 14.4179 192.576 14.3955C192.534 14.3725 192.503 14.3409 192.48 14.2995C192.456 14.2581 192.446 14.216 192.446 14.1719C192.446 14.1279 192.457 14.0851 192.481 14.0437C192.504 14.0029 192.535 13.9713 192.577 13.9483C192.619 13.9253 192.661 13.9154 192.703 13.9154C192.746 13.9154 192.788 13.926 192.828 13.9483C192.87 13.9713 192.901 14.0022 192.924 14.0437C192.947 14.0851 192.96 14.1279 192.96 14.1719C192.96 14.216 192.949 14.2587 192.926 14.2995Z" fill="white"/>
<path d="M192.807 14.2778C192.787 14.2468 192.77 14.225 192.758 14.2118C192.75 14.2046 192.741 14.1986 192.729 14.1947C192.758 14.1927 192.781 14.1822 192.798 14.1643C192.815 14.1472 192.824 14.1248 192.824 14.101C192.824 14.0845 192.819 14.0674 192.809 14.0522C192.798 14.0377 192.784 14.0265 192.768 14.0199C192.751 14.0133 192.722 14.01 192.683 14.01H192.567V14.3424H192.621V14.2013H192.652C192.671 14.2013 192.687 14.2052 192.696 14.2125C192.71 14.2244 192.728 14.2494 192.753 14.291L192.781 14.3431H192.848L192.807 14.2778ZM192.688 14.1558H192.623V14.0549H192.683C192.71 14.0549 192.727 14.0568 192.737 14.0601C192.746 14.0648 192.754 14.0694 192.759 14.0779C192.765 14.0865 192.768 14.0938 192.768 14.105C192.768 14.1195 192.762 14.132 192.752 14.1413C192.739 14.1525 192.719 14.1558 192.688 14.1558Z" fill="white"/>
<path d="M189.09 10.4871C188.636 10.4871 188.298 11.1072 188.298 11.1072L188.389 10.537H187.443L186.81 14.4712H187.852C188.148 12.7902 188.202 11.4269 188.907 11.6761C189.031 11.0263 189.151 10.7745 189.285 10.5002C189.285 10.5009 189.222 10.4871 189.09 10.4871Z" fill="white"/>
<path d="M191.708 9.63588L191.489 10.994C191.489 10.994 191.107 10.4659 190.509 10.4659C189.578 10.4665 188.803 11.5878 188.803 12.8755C188.803 13.7075 189.217 14.5223 190.062 14.5223C190.67 14.5223 191.007 14.0981 191.007 14.0981L190.963 14.4605H191.95L192.726 9.63391L191.708 9.63588ZM190.421 13.5358C190.055 13.5358 189.884 13.2294 189.884 12.7479C189.884 11.9607 190.237 11.4418 190.684 11.4418C191.048 11.4425 191.235 11.6931 191.235 12.2836C191.235 12.8196 190.97 13.5358 190.421 13.5358Z" fill="white"/>
<path d="M195.478 0H160.246C159.717 0 159.29 0.428138 159.29 0.956241V23.1162C159.29 23.6443 159.717 24.0724 160.246 24.0724H195.478C196.007 24.0724 196.434 23.6443 196.434 23.1162V0.956241C196.434 0.428138 196.007 0 195.478 0ZM193.099 17.48C193.072 17.53 193.034 17.5681 192.986 17.5951C192.937 17.6221 192.886 17.6359 192.833 17.6359C192.779 17.6359 192.728 17.6221 192.679 17.5951C192.631 17.5681 192.593 17.53 192.565 17.48C192.538 17.432 192.524 17.3807 192.524 17.3274C192.524 17.2742 192.538 17.2235 192.565 17.1735C192.592 17.1236 192.632 17.0861 192.68 17.0591C192.73 17.0335 192.78 17.0196 192.832 17.0196C192.884 17.0196 192.934 17.0335 192.983 17.0591C193.032 17.0861 193.071 17.1236 193.098 17.1735C193.126 17.2235 193.139 17.2748 193.139 17.3274C193.139 17.38 193.127 17.4333 193.099 17.48ZM193.789 12.0365C193.79 17.3011 189.524 21.5707 184.259 21.572C181.797 21.5726 179.551 20.6394 177.86 19.1064C176.168 20.6368 173.928 21.5693 171.469 21.5693C166.207 21.5693 161.937 17.2991 161.937 12.0365C161.937 6.79497 166.174 2.53726 171.408 2.50306C171.429 2.50306 171.449 2.50306 171.469 2.50306C173.928 2.50306 176.169 3.43563 177.861 4.96601C179.551 3.43497 181.794 2.50175 184.254 2.50109C189.52 2.49912 193.789 6.76669 193.79 12.0319C193.789 12.0332 193.789 12.0339 193.789 12.0365Z" fill="white"/>
<path d="M176.884 18.0642C177.186 18.4338 177.505 18.7863 177.859 19.1059C177.867 19.0987 177.875 19.0921 177.883 19.0856C177.883 19.0856 177.882 19.0856 177.882 19.0849H177.884C178.232 18.7686 178.556 18.4279 178.852 18.0642H176.884Z" fill="white"/>
<path d="M178.182 12.8316C178.182 12.8316 178.316 12.1739 178.316 11.9062C178.316 11.2374 177.983 10.4219 176.869 10.4219C175.848 10.4225 175.092 11.5221 175.092 12.7651C175.092 14.1995 176.039 14.5402 176.846 14.5402C177.59 14.5402 177.918 14.3731 177.918 14.3731L178.097 13.3945C178.097 13.3945 177.53 13.6444 177.019 13.6444C175.929 13.6444 176.12 12.8316 176.12 12.8316H178.182ZM176.872 11.3327C177.445 11.3327 177.339 11.9766 177.339 12.0279H176.212C176.212 11.9615 176.319 11.3327 176.872 11.3327Z" fill="white"/>
<path d="M182.942 10.557C183.459 10.557 183.874 10.8471 183.874 10.8471L184.039 9.77179C184.039 9.77179 183.425 9.52319 182.896 9.52319C181.725 9.52319 180.585 10.5399 180.585 12.4491C180.585 13.7151 181.2 14.551 182.412 14.551C182.754 14.551 183.299 14.4123 183.299 14.4123L183.481 13.3048C183.481 13.3048 182.984 13.554 182.642 13.554C181.921 13.5533 181.632 13.0035 181.632 12.4143C181.632 11.2154 182.252 10.557 182.942 10.557Z" fill="white"/>
<path d="M175.611 16.0613C175.776 16.4158 175.968 16.7531 176.174 17.082H179.557C179.762 16.7545 179.947 16.4138 180.112 16.0613H175.611Z" fill="white"/>
<path d="M180.567 10.4883C180.112 10.4883 179.776 11.1084 179.776 11.1084L179.867 10.5382H178.922L178.289 14.4724H179.33C179.626 12.792 179.681 11.4281 180.385 11.6773C180.509 11.0269 180.628 10.775 180.763 10.5001C180.763 10.5001 180.7 10.4869 180.567 10.4883Z" fill="white"/>
<path fill-rule="evenodd" clip-rule="evenodd" d="M213.434 0C212.882 0 212.434 0.447716 212.434 1V23C212.434 23.5523 212.882 24 213.434 24H248.434C248.987 24 249.434 23.5523 249.434 23V1C249.434 0.447715 248.987 0 248.434 0H213.434ZM231.799 3.00049L229.802 4.99084V4.24291H226.961V7.0478L226.443 6.53125L224.434 8.53248L226.539 10.6293H225.705V13.4594H228.543L228.002 13.9985L230.011 15.9998L232.067 13.9512V14.7813H234.907V11.847L235.426 12.3637L237.434 10.3624L235.423 8.3585H236.233V5.52833H233.279L233.808 5.00172L231.799 3.00049ZM232.521 9.46935L233.744 10.6881H232.067V12.2598L230.907 11.1042L229.813 12.194V10.6293H228.139L229.347 9.42555L228.254 8.33607H229.802V6.79874L230.903 7.89602L232.125 6.67777V8.3585H233.636L232.521 9.46935ZM222.732 18.0867C222.889 18.0867 223.031 18.1119 223.159 18.1623C223.291 18.2127 223.403 18.2804 223.496 18.3654C223.589 18.4504 223.661 18.5512 223.712 18.6678C223.763 18.7812 223.789 18.9024 223.789 19.0315C223.789 19.1607 223.763 19.2835 223.712 19.4001C223.661 19.5134 223.589 19.6127 223.496 19.6977C223.403 19.7827 223.291 19.8504 223.159 19.9008C223.031 19.9512 222.889 19.9764 222.732 19.9764H221.434V17.0001H223.549V17.6615H222.131V18.0867H222.732ZM222.708 19.3859C222.817 19.3859 222.908 19.3512 222.982 19.2819C223.055 19.2095 223.092 19.126 223.092 19.0315C223.092 18.9371 223.055 18.8552 222.982 18.7859C222.908 18.7134 222.817 18.6772 222.708 18.6772H222.131V19.3859H222.708ZM224.222 17.0001H226.384V17.6615H224.918V18.1339H226.264V18.7953H224.918V19.315H226.432V19.9764H224.222V17.0001ZM229.433 19.9764V17.0001H227.295L227.127 18.9371C227.114 19.0788 227.069 19.189 226.992 19.2678C226.919 19.3465 226.827 19.3859 226.718 19.3859H226.622V19.9764C226.648 19.9827 226.677 19.9875 226.709 19.9906C226.734 19.9938 226.765 19.9953 226.8 19.9953C226.835 19.9985 226.872 20.0001 226.911 20.0001C227.164 20.0001 227.369 19.9213 227.526 19.7638C227.683 19.6032 227.774 19.3749 227.8 19.0788L227.92 17.6615H228.737V19.9764H229.433ZM230.704 19.9764H230.008V17.0001H230.704V18.2756L231.617 17.0001H232.41L231.344 18.4646L232.435 19.9137L233.494 17.0001H234.214L235.295 19.9764H234.575L234.382 19.4095H233.325L233.133 19.9764H232.482H232.412H231.689L230.704 18.6536V19.9764ZM233.854 17.8268L234.19 18.819H233.518L233.854 17.8268ZM236.736 17.0001C236.893 17.0001 237.037 17.0268 237.169 17.0804C237.3 17.1308 237.414 17.2032 237.51 17.2977C237.606 17.389 237.681 17.4961 237.736 17.6189C237.79 17.7418 237.817 17.8741 237.817 18.0158C237.817 18.1575 237.79 18.2898 237.736 18.4127C237.681 18.5355 237.606 18.6441 237.51 18.7386C237.414 18.83 237.3 18.9024 237.169 18.956C237.037 19.0064 236.893 19.0315 236.736 19.0315H236.256V19.9764H235.559V17.0001H236.736ZM236.736 18.3701C236.845 18.3701 236.937 18.3355 237.01 18.2662C237.084 18.1938 237.121 18.1103 237.121 18.0158C237.121 17.9213 237.084 17.8394 237.01 17.7701C236.937 17.6977 236.845 17.6615 236.736 17.6615H236.256V18.3701H236.736ZM238.873 19.9764H239.569V17.6615H240.434V17.0001H238.008V17.6615H238.873V19.9764Z" fill="#545472"/>
<path fill-rule="evenodd" clip-rule="evenodd" d="M266.434 0C265.882 0 265.434 0.447716 265.434 1V23C265.434 23.5523 265.882 24 266.434 24H301.434C301.987 24 302.434 23.5523 302.434 23V1C302.434 0.447715 301.987 0 301.434 0H266.434ZM268.434 9C268.434 8.44771 268.882 8 269.434 8H275.434C275.987 8 276.434 8.44771 276.434 9V15C276.434 15.5523 275.987 16 275.434 16H269.434C268.882 16 268.434 15.5523 268.434 15V9ZM279.937 10.0866C280.118 10.0866 280.283 10.1118 280.432 10.1622C280.584 10.2126 280.714 10.2803 280.821 10.3654C280.929 10.4504 281.012 10.5512 281.072 10.6677C281.131 10.7811 281.161 10.9024 281.161 11.0315C281.161 11.1606 281.131 11.2835 281.072 11.4C281.012 11.5134 280.929 11.6126 280.821 11.6976C280.714 11.7827 280.584 11.8504 280.432 11.9008C280.283 11.9512 280.118 11.9764 279.937 11.9764H278.434V9H280.882V9.66142H279.241V10.0866H279.937ZM279.909 11.3858C280.035 11.3858 280.141 11.3512 280.226 11.2819C280.311 11.2094 280.354 11.126 280.354 11.0315C280.354 10.937 280.311 10.8551 280.226 10.7858C280.141 10.7134 280.035 10.6772 279.909 10.6772H279.241V11.3858H279.909ZM281.662 9H284.166V9.66142H282.469V10.1339H284.026V10.7953H282.469V11.315H284.221V11.9764H281.662V9ZM287.696 11.9764V9H285.22L285.026 10.937C285.011 11.0787 284.959 11.189 284.87 11.2677C284.784 11.3465 284.679 11.3858 284.553 11.3858H284.441V11.9764C284.471 11.9827 284.504 11.9874 284.542 11.9906C284.571 11.9937 284.606 11.9953 284.647 11.9953C284.688 11.9984 284.731 12 284.775 12C285.068 12 285.306 11.9213 285.487 11.7638C285.669 11.6031 285.775 11.3748 285.805 11.0787L285.944 9.66142H286.89V11.9764H287.696ZM289.168 11.9764H288.361V9H289.168V10.2756L290.225 9H291.143L289.908 10.4646L291.172 11.9137L292.398 9H293.232L294.484 11.9764H293.65L293.427 11.4094H292.203L291.98 11.9764H291.227H291.146H290.309L289.168 10.6535V11.9764ZM292.815 9.82677L293.204 10.8189H292.425L292.815 9.82677ZM296.152 9C296.334 9 296.501 9.02677 296.653 9.08031C296.805 9.13071 296.937 9.20315 297.048 9.29764C297.159 9.38898 297.247 9.49606 297.31 9.6189C297.373 9.74173 297.404 9.87402 297.404 10.0157C297.404 10.1575 297.373 10.2898 297.31 10.4126C297.247 10.5354 297.159 10.6441 297.048 10.7386C296.937 10.8299 296.805 10.9024 296.653 10.9559C296.501 11.0063 296.334 11.0315 296.152 11.0315H295.596V11.9764H294.789V9H296.152ZM296.152 10.3701C296.279 10.3701 296.384 10.3354 296.47 10.2661C296.555 10.1937 296.598 10.1102 296.598 10.0157C296.598 9.92126 296.555 9.83937 296.47 9.77008C296.384 9.69764 296.279 9.66142 296.152 9.66142H295.596V10.3701H296.152ZM298.626 11.9764H299.433V9.66142H300.434V9H297.624V9.66142H298.626V11.9764ZM278.876 13.9494V13H278.434V14.5949H278.83L279.607 13.6456V14.5949H280.049V13H279.653L278.876 13.9494ZM281.695 14.5949V13.4304H281.284V13.8481H280.797V13.4304H280.385V14.5949H280.797V14.1772H281.284V14.5949H281.695ZM281.879 13.4304H283.113V13.7595H282.702V14.5949H282.29V13.7595H281.879V13.4304ZM284.478 14.3899C284.515 14.346 284.542 14.3004 284.56 14.2532L284.134 14.2278C284.122 14.243 284.105 14.2557 284.085 14.2658C284.069 14.2759 284.046 14.2852 284.018 14.2937C283.992 14.3004 283.959 14.3038 283.92 14.3038C283.843 14.3038 283.779 14.2852 283.729 14.2481C283.68 14.211 283.647 14.1705 283.631 14.1266H284.591L284.593 14.1109L284.597 14.0886L284.603 14.0532C284.605 14.0397 284.606 14.0262 284.606 14.0127C284.606 13.9215 284.588 13.8388 284.551 13.7646C284.517 13.6886 284.468 13.6245 284.405 13.5722C284.344 13.5181 284.272 13.4768 284.189 13.4481C284.105 13.4194 284.016 13.4051 283.92 13.4051C283.821 13.4051 283.728 13.4211 283.64 13.4532C283.555 13.4835 283.48 13.5266 283.415 13.5823C283.35 13.6363 283.298 13.7004 283.259 13.7747C283.223 13.8473 283.204 13.9266 283.204 14.0127C283.204 14.0987 283.223 14.1789 283.259 14.2532C283.298 14.3257 283.349 14.3899 283.412 14.4456C283.477 14.4996 283.551 14.5426 283.634 14.5747C283.719 14.6051 283.81 14.6203 283.905 14.6203C283.997 14.6203 284.078 14.6101 284.149 14.5899C284.222 14.5696 284.286 14.5426 284.341 14.5089C284.396 14.4734 284.441 14.4338 284.478 14.3899ZM283.729 13.7797C283.779 13.7409 283.843 13.7215 283.92 13.7215C283.998 13.7215 284.061 13.7409 284.109 13.7797C284.16 13.8169 284.194 13.8608 284.21 13.9114H283.631C283.647 13.8608 283.68 13.8169 283.729 13.7797ZM285.595 13.4177C285.682 13.4177 285.766 13.4329 285.845 13.4633C285.924 13.492 285.993 13.5333 286.052 13.5873C286.113 13.6397 286.161 13.7021 286.195 13.7747C286.232 13.8473 286.25 13.9266 286.25 14.0127C286.25 14.0987 286.232 14.1781 286.195 14.2506C286.161 14.3232 286.113 14.3865 286.052 14.4405C285.993 14.4928 285.924 14.5342 285.845 14.5646C285.766 14.5932 285.682 14.6076 285.595 14.6076C285.542 14.6076 285.494 14.6025 285.449 14.5924C285.406 14.5823 285.37 14.5705 285.339 14.557C285.303 14.5418 285.271 14.5249 285.245 14.5063V15H284.833V13.4304H285.138L285.199 13.5443C285.229 13.5207 285.265 13.4996 285.306 13.481C285.34 13.4658 285.382 13.4515 285.431 13.438C285.479 13.4245 285.534 13.4177 285.595 13.4177ZM285.839 14.0127C285.839 13.93 285.809 13.8633 285.75 13.8127C285.692 13.7603 285.619 13.7342 285.534 13.7342C285.449 13.7342 285.377 13.7603 285.318 13.8127C285.259 13.8633 285.229 13.93 285.229 14.0127C285.229 14.0954 285.259 14.1629 285.318 14.2152C285.377 14.2658 285.449 14.2911 285.534 14.2911C285.619 14.2911 285.692 14.2658 285.75 14.2152C285.809 14.1629 285.839 14.0954 285.839 14.0127ZM287.392 14.5949H287.804V13.4304H287.392V13.8481H286.905V13.4304H286.494V14.5949H286.905V14.1772H287.392V14.5949ZM289.404 14.2532C289.386 14.3004 289.358 14.346 289.322 14.3899C289.285 14.4338 289.24 14.4734 289.185 14.5089C289.13 14.5426 289.066 14.5696 288.993 14.5899C288.922 14.6101 288.84 14.6203 288.749 14.6203C288.654 14.6203 288.563 14.6051 288.478 14.5747C288.395 14.5426 288.32 14.4996 288.255 14.4456C288.192 14.3899 288.142 14.3257 288.103 14.2532C288.067 14.1789 288.048 14.0987 288.048 14.0127C288.048 13.9266 288.067 13.8473 288.103 13.7747C288.142 13.7004 288.193 13.6363 288.258 13.5823C288.323 13.5266 288.399 13.4835 288.484 13.4532C288.571 13.4211 288.665 13.4051 288.764 13.4051C288.86 13.4051 288.949 13.4194 289.032 13.4481C289.116 13.4768 289.188 13.5181 289.249 13.5722C289.312 13.6245 289.36 13.6886 289.395 13.7646C289.431 13.8388 289.45 13.9215 289.45 14.0127C289.45 14.0262 289.449 14.0397 289.447 14.0532L289.441 14.0886C289.439 14.1021 289.437 14.1148 289.435 14.1266H288.475C288.491 14.1705 288.524 14.211 288.572 14.2481C288.623 14.2852 288.687 14.3038 288.764 14.3038C288.803 14.3038 288.835 14.3004 288.862 14.2937C288.89 14.2852 288.913 14.2759 288.929 14.2658C288.949 14.2557 288.965 14.243 288.977 14.2278L289.404 14.2532ZM288.764 13.7215C288.687 13.7215 288.623 13.7409 288.572 13.7797C288.524 13.8169 288.491 13.8608 288.475 13.9114H289.054C289.037 13.8608 289.004 13.8169 288.953 13.7797C288.904 13.7409 288.841 13.7215 288.764 13.7215ZM290.774 13.4304H289.54V13.7595H289.952V14.5949H290.363V13.7595H290.774V13.4304ZM292.617 13V14.5949H292.175V13.3544H291.429V14.5949H290.987V13H292.617ZM293.794 13.4405C293.723 13.4169 293.646 13.4051 293.562 13.4051C293.471 13.4051 293.39 13.4152 293.319 13.4354C293.247 13.454 293.187 13.481 293.136 13.5165C293.087 13.5502 293.047 13.5916 293.017 13.6405C292.986 13.6878 292.965 13.7401 292.953 13.7975L293.364 13.8228C293.37 13.8025 293.382 13.784 293.398 13.7671C293.412 13.7536 293.43 13.7409 293.453 13.7291C293.477 13.7156 293.508 13.7089 293.547 13.7089C293.6 13.7089 293.644 13.7241 293.678 13.7544C293.713 13.7848 293.73 13.8287 293.73 13.8861C293.569 13.8861 293.435 13.8962 293.328 13.9165C293.222 13.935 293.137 13.962 293.072 13.9975C293.007 14.0312 292.96 14.0726 292.932 14.1215C292.905 14.1688 292.892 14.2211 292.892 14.2785C292.892 14.3747 292.933 14.454 293.014 14.5165C293.095 14.5772 293.212 14.6076 293.364 14.6076C293.425 14.6076 293.48 14.6017 293.529 14.5899C293.58 14.5764 293.623 14.5612 293.66 14.5443C293.702 14.5257 293.741 14.5046 293.776 14.481L293.837 14.5949H294.141V13.8861C294.141 13.8169 294.127 13.7527 294.099 13.6937C294.07 13.6346 294.029 13.584 293.977 13.5418C293.926 13.4979 293.865 13.4641 293.794 13.4405ZM293.657 14.2962C293.61 14.335 293.548 14.3544 293.471 14.3544C293.418 14.3544 293.376 14.3435 293.346 14.3215C293.318 14.2996 293.303 14.2726 293.303 14.2405C293.303 14.2186 293.308 14.1983 293.319 14.1797C293.331 14.1612 293.352 14.1451 293.383 14.1316C293.415 14.1181 293.459 14.108 293.514 14.1013C293.57 14.0928 293.643 14.0886 293.73 14.0886V14.1392C293.73 14.2034 293.705 14.2557 293.657 14.2962ZM295.193 13.4177C295.281 13.4177 295.364 13.4329 295.443 13.4633C295.522 13.492 295.591 13.5333 295.65 13.5873C295.711 13.6397 295.759 13.7021 295.794 13.7747C295.83 13.8473 295.848 13.9266 295.848 14.0127C295.848 14.0987 295.83 14.1781 295.794 14.2506C295.759 14.3232 295.711 14.3865 295.65 14.4405C295.591 14.4928 295.522 14.5342 295.443 14.5646C295.364 14.5932 295.281 14.6076 295.193 14.6076C295.141 14.6076 295.092 14.6025 295.047 14.5924C295.004 14.5823 294.968 14.5705 294.937 14.557C294.901 14.5418 294.869 14.5249 294.843 14.5063V15H294.432V13.4304H294.736L294.797 13.5443C294.828 13.5207 294.863 13.4996 294.904 13.481C294.938 13.4658 294.98 13.4515 295.029 13.438C295.078 13.4245 295.132 13.4177 295.193 13.4177ZM295.437 14.0127C295.437 13.93 295.408 13.8633 295.349 13.8127C295.29 13.7603 295.218 13.7342 295.132 13.7342C295.047 13.7342 294.975 13.7603 294.916 13.8127C294.857 13.8633 294.828 13.93 294.828 14.0127C294.828 14.0954 294.857 14.1629 294.916 14.2152C294.975 14.2658 295.047 14.2911 295.132 14.2911C295.218 14.2911 295.29 14.2658 295.349 14.2152C295.408 14.1629 295.437 14.0954 295.437 14.0127ZM296.086 13.7747C296.049 13.8473 296.031 13.9266 296.031 14.0127C296.031 14.0987 296.049 14.1789 296.086 14.2532C296.124 14.3257 296.176 14.3899 296.241 14.4456C296.306 14.4996 296.381 14.5426 296.467 14.5747C296.554 14.6051 296.647 14.6203 296.747 14.6203C296.846 14.6203 296.939 14.6051 297.024 14.5747C297.112 14.5426 297.188 14.4996 297.253 14.4456C297.318 14.3899 297.368 14.3257 297.405 14.2532C297.444 14.1789 297.463 14.0987 297.463 14.0127C297.463 13.9266 297.444 13.8473 297.405 13.7747C297.368 13.7004 297.318 13.6363 297.253 13.5823C297.188 13.5266 297.112 13.4835 297.024 13.4532C296.939 13.4211 296.846 13.4051 296.747 13.4051C296.647 13.4051 296.554 13.4211 296.467 13.4532C296.381 13.4835 296.306 13.5266 296.241 13.5823C296.176 13.6363 296.124 13.7004 296.086 13.7747ZM296.963 13.8C297.022 13.8523 297.052 13.9232 297.052 14.0127C297.052 14.1021 297.022 14.173 296.963 14.2253C296.904 14.2776 296.832 14.3038 296.747 14.3038C296.662 14.3038 296.59 14.2776 296.531 14.2253C296.472 14.173 296.442 14.1021 296.442 14.0127C296.442 13.9232 296.472 13.8523 296.531 13.8C296.59 13.7477 296.662 13.7215 296.747 13.7215C296.832 13.7215 296.904 13.7477 296.963 13.8ZM298.927 14.5949H298.516V13.7595H298.196L298.15 14.2152C298.138 14.3418 298.089 14.4388 298.004 14.5063C297.918 14.5738 297.8 14.6076 297.647 14.6076C297.627 14.6076 297.61 14.6068 297.595 14.6051C297.581 14.6051 297.569 14.6042 297.559 14.6025C297.547 14.6008 297.536 14.5983 297.525 14.5949V14.3038H297.571C297.632 14.3038 297.676 14.2928 297.702 14.2709C297.729 14.2473 297.746 14.2034 297.754 14.1392L297.83 13.4304H298.927V14.5949ZM300.133 13.8177C300.072 13.7958 300.005 13.7848 299.932 13.7848H299.642V13.4304H299.231V14.5949H299.932C300.005 14.5949 300.072 14.5848 300.133 14.5646C300.194 14.5426 300.246 14.5139 300.291 14.4785C300.336 14.4413 300.37 14.3983 300.395 14.3494C300.421 14.3004 300.434 14.2473 300.434 14.1899C300.434 14.1325 300.421 14.0793 300.395 14.0304C300.37 13.9814 300.336 13.9392 300.291 13.9038C300.246 13.8667 300.194 13.838 300.133 13.8177ZM299.977 14.2835C299.949 14.3055 299.908 14.3165 299.855 14.3165H299.642V14.0633H299.855C299.908 14.0633 299.949 14.0751 299.977 14.0987C300.008 14.1207 300.023 14.1511 300.023 14.1899C300.023 14.2287 300.008 14.2599 299.977 14.2835ZM271.917 12.5213H271.144L271.702 11.9657L271.197 11.4628H271.911V10.7533L272.42 11.2597L272.984 10.6974V11.4732H273.681L273.167 11.9859L273.731 12.5483H272.957V13.2738L272.422 12.7405L271.917 13.2435V12.5213ZM274.268 13.0833V14.4375H272.957V14.0545L272.008 15L271.081 14.0763L271.331 13.8275H270.021V12.5213H270.406L269.434 11.5535L270.361 10.6299L270.601 10.8683V9.57365H271.911V9.91885L272.833 9.00022L273.76 9.92387L273.516 10.167H274.88V11.4732H274.506L275.434 12.3981L274.507 13.3218L274.268 13.0833Z" fill="white"/>
<path fill-rule="evenodd" clip-rule="evenodd" d="M319.434 0C318.882 0 318.434 0.447716 318.434 1V23C318.434 23.5523 318.882 24 319.434 24H354.434C354.987 24 355.434 23.5523 355.434 23V1C355.434 0.447715 354.987 0 354.434 0H319.434ZM337.417 3.92905L337.417 3.92892H337.418L337.417 3.92905ZM337.417 3.92905L337.454 3.952C337.561 4.01251 337.624 4.21122 337.691 4.42422L337.691 4.42426C337.723 4.52396 337.755 4.62679 337.794 4.72004C337.923 5.03329 338.061 5.43251 338.196 5.8279L338.196 5.82793L338.197 5.82811C338.3 6.12924 338.403 6.42816 338.501 6.68518C338.512 6.71373 338.524 6.7427 338.537 6.77228L338.537 6.77232C338.583 6.87531 338.632 6.98579 338.614 7.11232C338.486 7.19412 337.994 7.1808 337.68 7.17233C337.603 7.17024 337.537 7.16844 337.489 7.16844C337.385 7.16844 337.266 7.17099 337.141 7.17366C336.842 7.18003 336.511 7.18711 336.279 7.16203C336.215 7.01108 336.312 6.76116 336.424 6.47367C336.492 6.29944 336.565 6.1114 336.611 5.92324C336.632 5.83664 336.664 5.76776 336.701 5.69055C336.724 5.64223 336.748 5.59066 336.772 5.52944C336.835 5.36873 336.888 5.20781 336.941 5.04982L336.941 5.04981C336.979 4.93449 337.017 4.82073 337.057 4.70978L337.282 4.10016C337.289 4.07889 337.295 4.06083 337.3 4.04531C337.321 3.97505 337.326 3.95683 337.417 3.92905ZM335.182 10.1665L333.675 9.57035H333.675C333.718 9.36807 333.84 9.06918 333.946 8.81127L333.946 8.8112L333.946 8.81102C333.99 8.70473 334.03 8.6054 334.061 8.52268L336.007 3.41775C336.028 3.36127 336.049 3.30337 336.07 3.24475C336.281 2.65936 336.518 2.00351 337.427 2.00001C338.329 1.99671 338.562 2.63205 338.808 3.30442L338.808 3.30498C338.824 3.34962 338.841 3.39444 338.858 3.43923L340.802 8.54224C340.831 8.6198 340.87 8.71536 340.912 8.8182L340.912 8.81825L340.912 8.81828C341.017 9.07601 341.14 9.37948 341.175 9.56009C341.09 9.62166 339.796 10.1296 339.671 10.1501L339.066 8.46753L335.787 8.4733L335.182 10.1665ZM334.584 13.9855L334.584 13.9855C334.12 13.9829 333.781 13.981 333.643 13.981C333.428 13.981 333.43 13.9374 333.437 13.7916C333.438 13.7651 333.439 13.7351 333.44 13.7014L333.434 12.7294L333.434 12.7133C333.434 12.6001 333.434 12.5471 333.46 12.5226C333.484 12.501 333.527 12.5016 333.609 12.5025H333.61C333.629 12.5027 333.65 12.503 333.674 12.503H340.812C340.85 12.5028 340.897 12.5003 340.947 12.4977C341.108 12.4893 341.304 12.479 341.389 12.5347C341.451 12.6342 341.448 13.8787 341.383 13.9525C341.299 14.0231 336.677 13.9972 334.584 13.9855ZM333.924 20.2897V18.7431C334.786 18.8423 334.804 20.1745 333.924 20.2897ZM329.986 19.5967C330.285 19.5701 330.741 19.532 330.831 19.8016C330.957 20.1808 330.664 20.293 330.342 20.293L330.125 20.2944L329.986 20.2856V19.5967H329.986ZM329.284 20.8945C329.632 20.9147 330.38 20.9264 330.707 20.8876C331.733 20.7662 331.798 19.5807 331.224 19.1649C330.969 18.9799 330.71 18.9812 330.425 18.9828C330.287 18.9835 330.143 18.9843 329.99 18.9642C329.99 18.9076 329.993 18.839 329.996 18.765C330.005 18.5461 330.015 18.2798 329.962 18.1355L329.272 18.1401L329.284 20.8943L329.284 20.8945ZM326.234 20.8833C327.309 21.0652 327.308 19.963 327.307 19.0962C327.307 18.9854 327.307 18.8784 327.309 18.7785L328 18.7773L328 20.8962L328.719 20.8984V18.1357L326.661 18.1427C326.659 18.2018 326.656 18.3065 326.653 18.4373L326.653 18.4378C326.64 18.9381 326.618 19.8195 326.578 19.992C326.527 20.2067 326.465 20.2184 326.235 20.2602L326.234 20.8833H326.234ZM350.174 19.4641L350.174 19.4641C350.247 19.5682 350.481 19.8205 350.728 20.088L350.728 20.0881L350.728 20.0881C351.035 20.4193 351.363 20.7737 351.434 20.8982C351.215 20.898 351.052 20.9023 350.928 20.9055C350.689 20.9117 350.594 20.9142 350.522 20.8742C350.473 20.8473 350.435 20.8013 350.372 20.7244C350.3 20.6359 350.194 20.5067 350 20.3187C349.956 20.276 349.892 20.201 349.822 20.1192L349.822 20.1192L349.822 20.1192C349.699 19.9738 349.557 19.8071 349.475 19.7624L349.473 20.8984H348.755L348.755 18.1362H349.473L349.474 19.2043L350.221 18.4006C350.465 18.105 350.533 18.1079 350.99 18.1273L350.99 18.1273C351.088 18.1315 351.203 18.1364 351.341 18.1393C351.292 18.2394 351.237 18.2899 351.175 18.3471C351.137 18.382 351.097 18.4194 351.053 18.472C350.982 18.5574 350.855 18.693 350.719 18.8388C350.494 19.0785 350.244 19.3459 350.174 19.4641L350.174 19.4638L350.174 19.4641ZM346.489 19.8076C346.549 19.8076 346.627 19.8053 346.714 19.8027C346.982 19.7947 347.334 19.7842 347.488 19.8329L347.49 20.8986H348.207L348.207 18.1364H347.489L347.483 19.1645L346.492 19.1667L346.489 18.1434L345.774 18.1365L345.775 20.8988L346.489 20.8898V19.8078L346.489 19.8076ZM344.46 19.6895C344.488 19.9731 344.426 20.1858 344.236 20.2971C343.646 20.6441 343.173 19.891 343.679 19.7155C343.811 19.6697 344.268 19.6836 344.45 19.6892L344.46 19.6895H344.46ZM343.543 18.9388C343.658 18.5823 344.434 18.4613 344.468 19.1167C344.34 19.1246 344.206 19.1228 344.072 19.121H344.071C343.747 19.1166 343.42 19.1122 343.164 19.2446C342.862 19.4017 342.657 19.7449 342.76 20.2268C342.843 20.6101 343.091 20.8461 343.48 20.9329C344.03 21.0557 344.302 20.8276 344.454 20.7005C344.49 20.6698 344.52 20.645 344.545 20.6324C344.785 20.8679 344.931 20.9337 345.366 20.8818V20.3167C345.335 20.2471 345.306 20.2424 345.28 20.2382C345.247 20.233 345.219 20.2284 345.194 20.1035L345.185 19.0414C345.113 17.6805 342.975 17.6688 342.81 18.9386H343.543V18.9388ZM337.269 19.6883C337.298 19.9634 337.239 20.1729 337.068 20.2848C336.491 20.664 335.963 19.8958 336.49 19.7152C336.614 19.6727 336.962 19.6811 337.174 19.6862C337.21 19.6871 337.243 19.6879 337.269 19.6883ZM336.354 18.9388C336.476 18.5775 337.237 18.4662 337.278 19.1199C337.172 19.123 337.061 19.1209 336.948 19.1188C336.601 19.1124 336.241 19.1057 335.974 19.246C335.673 19.4044 335.471 19.7466 335.568 20.2198C335.646 20.5995 335.913 20.8521 336.288 20.9332C336.765 21.0363 337.008 20.9087 337.288 20.6782L337.297 20.6717L337.309 20.6622L337.353 20.6317L337.385 20.6613C337.59 20.8517 337.673 20.9284 338.177 20.8847V20.3167C338.138 20.2376 338.107 20.2391 338.082 20.2403C338.051 20.2418 338.026 20.243 338.001 20.1043L337.993 19.0443C337.97 18.6078 337.758 18.3051 337.457 18.154C336.928 17.889 335.75 17.9292 335.617 18.939H336.354V18.9388ZM323.725 19.4417C323.764 19.2585 324.214 17.9453 324.28 17.8817L324.774 19.442L323.725 19.4417ZM323.485 20.1098L325.003 20.1088L325.247 20.8974L326.085 20.8986C325.966 20.4171 325.524 19.1676 325.211 18.2797C325.129 18.0492 325.056 17.843 325 17.681L324.992 17.6582C324.853 17.2579 324.753 16.9696 324.233 17.0025C323.793 17.0305 323.69 17.3349 323.567 17.6978L323.546 17.7578L322.793 19.8608C322.776 19.9048 322.757 19.9541 322.737 20.007C322.63 20.2857 322.484 20.6642 322.434 20.8972L323.215 20.8926L323.485 20.1098ZM340.282 20.2024L340.272 19.1995C340.355 19.1995 340.444 19.1965 340.536 19.1935C341.069 19.1757 341.673 19.1555 341.668 19.7128C341.662 20.2501 341.038 20.2273 340.531 20.2088C340.443 20.2055 340.359 20.2024 340.282 20.2024ZM339.521 20.8986H341.003C341.955 20.8986 342.619 20.401 342.405 19.4015C342.218 18.5261 341.324 18.5274 340.4 18.5288L340.289 18.5289L340.276 17.745L342.133 17.7438L342.137 17.0687C341.965 17.0151 340.681 17.0312 339.953 17.0404C339.759 17.0428 339.605 17.0447 339.521 17.0447V20.8988L339.521 20.8986ZM333.204 18.7359V20.294C332.327 20.1654 332.321 18.8779 333.204 18.7359ZM333.199 18.0165C333.19 18.0345 333.183 18.0464 333.174 18.0553C333.156 18.0731 333.126 18.0789 333.036 18.0962C333.017 18.0997 332.996 18.1037 332.973 18.1084C332.516 18.1983 332.147 18.4699 331.957 18.885C331.581 19.7051 331.953 20.8223 333.199 20.96L333.204 21.9909L333.924 21.9998L333.926 20.9639C334.733 20.8399 335.287 20.3997 335.298 19.5356C335.31 18.6493 334.744 18.1916 333.927 18.0712L333.923 17.0444L333.204 17.0463V18.0074L333.204 18.0076C333.202 18.0107 333.201 18.0137 333.199 18.0165Z" fill="#545472"/>
</svg>
