<svg width="38" height="24" fill="none" xmlns="http://www.w3.org/2000/svg"><path fill-rule="evenodd" clip-rule="evenodd" d="M1.434 0a1 1 0 00-1 1v22a1 1 0 001 1h35a1 1 0 001-1V1a1 1 0 00-1-1h-35zm17.983 3.929zm-.117.116c.02-.07.026-.088.117-.116l.037.023m-.154.093zm0 0c-.005.016-.01.034-.018.055zm-.018.055l-.225.61zm-.225.61c-.04.11-.078.224-.116.34zm-.116.34zm0 0a9.572 9.572 0 01-.169.48zm-.169.48c-.024.06-.048.112-.071.16zm-.071.16zm0 0a1.172 1.172 0 00-.09.233zm-.09.233c-.046.188-.12.376-.187.55zm-.187.55zm0 0c-.112.288-.21.538-.145.689zm-.145.689c.232.025.563.018.862.012zm.862.012c.125-.003.245-.006.348-.006zm.348-.006c.048 0 .114.002.191.004zm.191.004c.314.009.806.022.934-.06zm.934-.06c.018-.126-.031-.237-.077-.34zm-.077-.34zm0 0a1.732 1.732 0 01-.036-.087zm-.036-.087c-.098-.257-.201-.556-.305-.857zm-.305-.857zm0 0c-.136-.396-.273-.795-.402-1.108zm-.402-1.108c-.039-.093-.071-.196-.103-.296zm-2.612 5.446l-1.507-.596c.043-.202.165-.5.27-.759h.001c.044-.106.084-.206.115-.288l1.946-5.105.063-.173c.211-.586.448-1.241 1.357-1.245.902-.003 1.135.632 1.38 1.304l.001.001.05.134 1.944 5.103c.029.078.068.173.11.276.105.258.229.561.263.742-.085.062-1.379.57-1.504.59l-.605-1.682-3.28.005-.604 1.693zm-.598 3.82l-.941-.005c-.215 0-.213-.044-.206-.19l.003-.09-.006-.972v-.016c0-.113 0-.166.026-.19.023-.022.067-.021.15-.02h7.202c.038 0 .085-.003.135-.005.16-.009.357-.019.442.037.062.1.06 1.344-.006 1.418-.084.07-4.706.044-6.799.033zm-.66 6.304v-1.547c.862.1.88 1.431 0 1.547zm-3.938-.693c.299-.027.755-.065.845.205.126.379-.167.491-.49.491l-.216.001-.139-.008v-.69zm-.702 1.297c.348.02 1.096.032 1.423-.006 1.026-.122 1.09-1.307.517-1.723-.255-.185-.514-.184-.8-.182-.137 0-.28.001-.434-.019 0-.056.003-.125.006-.199.009-.219.02-.485-.034-.63l-.69.005.012 2.754zm-3.05-.01c1.075.181 1.074-.921 1.073-1.788 0-.11 0-.218.002-.317l.691-.002v2.12l.72.001v-2.762l-2.06.007-.007.295c-.013.5-.035 1.382-.075 1.554-.05.215-.113.226-.343.268l-.001.623zm23.94-1.42c.073.104.307.357.554.624.307.331.635.686.706.81-.219 0-.382.004-.506.008-.239.006-.334.008-.406-.032a.58.58 0 01-.15-.15A4.34 4.34 0 0032 20.32c-.044-.043-.108-.118-.178-.2-.123-.145-.265-.312-.347-.357l-.002 1.136h-.718v-2.762h.718l.001 1.068.747-.803c.244-.296.312-.293.77-.274.097.005.212.01.35.012a.627.627 0 01-.166.208 1.223 1.223 0 00-.122.125c-.07.085-.198.22-.334.367-.225.24-.475.507-.545.625zm-3.685.344c.06 0 .138-.003.225-.005.268-.008.62-.019.774.03l.002 1.066h.716l.001-2.763h-.718l-.006 1.029-.99.002-.004-1.024-.715-.006v2.762l.715-.01v-1.081zm-2.03-.119c.029.284-.033.497-.223.608-.59.347-1.063-.406-.557-.582.132-.045.588-.031.77-.026h.01zm-.916-.75c.115-.357.891-.478.925.178-.128.008-.262.006-.396.004-.325-.004-.652-.009-.908.124-.302.157-.507.5-.404.982.083.383.33.62.72.706.55.123.822-.105.974-.232a.571.571 0 01.09-.069c.24.236.387.302.822.25v-.565c-.031-.07-.06-.075-.086-.079-.033-.005-.061-.01-.086-.134l-.01-1.063c-.071-1.36-2.209-1.372-2.374-.102h.733zm-6.274.75c.029.274-.03.484-.2.596-.578.379-1.106-.39-.58-.57.125-.042.473-.034.684-.029l.096.002zm-.915-.75c.122-.361.883-.473.924.18-.106.004-.217.002-.33 0-.347-.007-.707-.013-.974.127-.3.158-.503.5-.406.974.078.38.345.632.72.713.477.103.72-.024 1-.255l.009-.006.012-.01.044-.03.032.03c.205.19.288.266.792.223v-.568c-.04-.08-.07-.078-.095-.077-.031.002-.056.003-.081-.136l-.008-1.06c-.023-.436-.235-.739-.536-.89-.529-.265-1.707-.225-1.84.785h.737zm-12.629.503c.039-.183.489-1.497.555-1.56l.494 1.56H5.725zm-.24.668l1.518-.001.244.788.838.002c-.12-.482-.56-1.731-.874-2.62a45.14 45.14 0 01-.21-.598l-.009-.023c-.139-.4-.239-.688-.759-.655-.44.027-.543.332-.666.695l-.02.06-.754 2.103a31.85 31.85 0 01-.056.146c-.107.279-.253.657-.303.89l.781-.004.27-.783zm16.797.092l-.01-1.003c.083 0 .173-.003.264-.006.533-.017 1.137-.038 1.132.52-.006.537-.63.514-1.137.496a6.865 6.865 0 00-.25-.007zm-.76.697h1.48c.953 0 1.617-.498 1.403-1.498-.187-.875-1.081-.874-2.005-.872h-.11l-.014-.784 1.857-.001.004-.675c-.172-.054-1.456-.038-2.184-.029h-.001a45.77 45.77 0 01-.431.005v3.854zm-6.318-2.163v1.558c-.877-.129-.883-1.416 0-1.558zm-.005-.72a.15.15 0 01-.025.04c-.018.017-.048.023-.138.04l-.063.012c-.457.09-.826.362-1.016.777-.376.82-.004 1.937 1.242 2.075l.005 1.03.72.01.002-1.036c.807-.124 1.361-.564 1.372-1.428.012-.887-.554-1.344-1.371-1.465l-.004-1.027-.72.002v.961c0 .004-.002.007-.004.01z" fill="#fff"/></svg>