<svg width="356" height="25" fill="none" xmlns="http://www.w3.org/2000/svg"><path d="M89.189 0H53.956A.956.956 0 0053 .956v22.16c0 .528.428.956.956.956H89.19a.956.956 0 00.956-.956V.956A.956.956 0 0089.189 0zM55.876 7.274h3.964c.535.02.966.191 1.114.763l.863 4.146c-.847-2.169-2.889-3.973-5.974-4.72l.033-.189zm4.797 9.458l-2.29-7.824c1.646 1.054 3.048 2.725 3.542 3.889l.267.966 2.505-6.399h2.71l-4.028 9.366-2.706.002zm8.724.006h-2.556l1.598-9.383h2.559l-1.6 9.383zm4.45.14c-1.146-.01-2.25-.238-2.849-.5l.36-2.1.33.15c.84.35 1.383.492 2.407.492.735 0 1.522-.288 1.53-.916.004-.411-.33-.705-1.326-1.165-.97-.449-2.256-1.201-2.24-2.549.014-1.823 1.795-3.096 4.322-3.096a6.6 6.6 0 012.29.394l-.344 2.034-.231-.108a4.719 4.719 0 00-1.914-.36c-1.001 0-1.465.418-1.465.808-.006.439.542.728 1.436 1.164 1.475.67 2.157 1.481 2.148 2.549-.02 1.946-1.765 3.204-4.454 3.204zm11.082-.136s-.234-1.079-.311-1.406l-3.275-.004c-.1.253-.538 1.41-.538 1.41H78.12l3.797-8.599c.27-.61.727-.779 1.34-.779h1.975l2.07 9.377-2.373.001z" fill="#fff"/><path d="M83.609 10.704l-.172-.808c-.13.353-.355.92-.34.895l-1.02 2.623h2.124l-.592-2.71zm30.507-.89c-.15-.099-.375-.149-.669-.149l-.252.001a.388.388 0 00-.366.292l-.233 1c-.036.162.067.294.235.294h.188c.417 0 .741-.085.973-.256.232-.17.351-.41.346-.723.001-.207-.073-.361-.222-.46zm4.111 2.304c-.046.001-.394.04-.57.062a2.92 2.92 0 00-.507.115l-.326.222a.581.581 0 00-.113.376l.149.288c.101.056.249.084.439.084.125 0 .26-.03.402-.088l.303-.156.119-.16c.048-.185.146-.597.157-.649l-.053-.094z" fill="#fff"/><path d="M142.333 0h-35.232a.955.955 0 00-.956.956v22.16c0 .528.427.956.956.956h35.232a.956.956 0 00.957-.956V.956a.956.956 0 00-.957-.956zm-27.32 11.678c-.524.385-1.252.577-2.194.578h-.22a.394.394 0 00-.369.292l-.264 1.143a.396.396 0 01-.37.293h-.769c-.167 0-.272-.134-.232-.293l1.081-4.71a.405.405 0 01.371-.295h1.607c.347.003.648.024.908.071.257.05.48.13.67.246.181.115.328.268.42.454.103.185.148.417.148.693 0 .632-.26 1.142-.787 1.527zm4.776-.602l-.029.198-.562 2.428a.398.398 0 01-.331.288l-.01.004h-.716l-.002-.002c-.147-.014-.238-.138-.206-.288v-.002l.001-.004.029-.124-.004-.005-.29.192-.316.176-.372.128a2.141 2.141 0 01-.483.044c-.328 0-.603-.09-.811-.276a.948.948 0 01-.313-.73c0-.316.073-.583.219-.805a1.51 1.51 0 01.663-.523c.273-.124.601-.216.976-.268.382-.055.698-.095 1.135-.123l.111-.068.014-.109a.355.355 0 00-.232-.35c-.157-.065-.392-.098-.7-.098a3.324 3.324 0 00-.722.096c-.261.06-.332.098-.46.136-.059.02-.202.03-.149-.216l.094-.388s.046-.293.339-.356c.142-.032.164-.038.395-.073.312-.048.621-.073.931-.073.627 0 1.086.082 1.376.246.291.163.44.418.438.76l-.013.185zm1.237 4.784l-.797.002c-.166 0-.221-.132-.119-.294l.682-1.189s.054-.068.005-.456c-.105-.7-.628-3.681-.628-3.681-.038-.161.064-.294.23-.294h.69c.211 0 .381.138.419.301l.343 2.067.128.001c.107-.19 1.209-2.081 1.209-2.081.105-.16.318-.294.484-.294 0 0 .741.002.923 0 .274-.004-.021.44-.021.44l-3.067 5.186c-.099.162-.317.292-.481.292zm7.969-4.162c-.526.383-1.258.577-2.2.577h-.219a.397.397 0 00-.37.292l-.26 1.145a.398.398 0 01-.37.289l-.771.002c-.164 0-.272-.132-.233-.292l1.083-4.714a.402.402 0 01.368-.292l1.61-.002c.345.002.649.026.904.072a1.9 1.9 0 01.67.245c.184.118.328.268.424.455.098.184.146.417.148.693 0 .63-.264 1.14-.784 1.53zm4.773-.618l-.028.199-.563 2.426a.397.397 0 01-.329.29l-.01.003h-.716l-.001-.004c-.149-.013-.241-.137-.205-.288l-.001-.002.003-.002.026-.124-.005-.006-.288.194-.318.176-.371.125c-.115.03-.277.043-.482.046-.329 0-.602-.094-.811-.278a.946.946 0 01-.315-.731c0-.314.073-.582.221-.803.15-.221.371-.393.661-.523a3.59 3.59 0 01.978-.268 12.6 12.6 0 011.137-.123l.11-.07.012-.108a.352.352 0 00-.233-.349c-.156-.066-.392-.1-.698-.1a3.435 3.435 0 00-.723.097c-.26.06-.33.098-.457.136-.065.02-.203.03-.151-.216l.094-.387s.044-.294.338-.357c.143-.03.166-.038.396-.071.311-.05.622-.075.932-.075.624 0 1.082.083 1.375.247.293.163.44.417.44.76l-.018.186zm2.466-2.044l-1.031 4.67-.036.056c-.061.131-.192.238-.333.238h-.716l-.013-.017c-.136-.02-.225-.13-.192-.274l-.002-.003.031-.135.964-4.381.035-.153.038-.06c.063-.129.19-.233.332-.233h.688c.168 0 .269.13.233.291l.002.001zm1.367-.505h-.258v.343l.002.092.018.062.04.04.079.012.065-.01.048-.014h.006v.112l-.077.016-.073.006-.175-.063-.06-.197v-.4h-.087v-.106h.087V8.21h.127v.214h.258v.106zm1.246.157v.485h-.124v-.427l-.008-.092-.017-.072-.043-.043-.084-.015-.104.027-.107.068.002.036.001.04v.48h-.125v-.428l-.005-.093-.018-.072-.042-.042-.085-.015-.103.025-.105.065v.56h-.123v-.75h.123v.084l.12-.076.124-.028.13.03.08.09.138-.092.135-.028.182.074.059.21h-.001z" fill="#fff"/><path d="M132.207 12.122c-.046-.001-.392.04-.566.062a2.77 2.77 0 00-.507.115.786.786 0 00-.33.222.599.599 0 00-.11.376l.151.287c.096.058.242.085.438.085.123 0 .258-.03.399-.087l.301-.156.124-.16c.046-.187.146-.598.154-.65l-.054-.094zm-4.115-2.291c-.152-.099-.373-.148-.668-.149l-.25.001a.394.394 0 00-.369.293l-.233 1c-.037.16.07.294.237.292H127c.416 0 .739-.085.972-.252.23-.172.347-.411.346-.726-.004-.205-.076-.36-.226-.459zm41.096.608c-.696 0-1.229.223-1.229.223l-.148.875s.44-.179 1.107-.179c.378 0 .654.042.654.35 0 .186-.033.255-.033.255s-.298-.024-.437-.024c-.877 0-1.8.373-1.8 1.504 0 .89.605 1.094.98 1.094.717 0 1.026-.465 1.041-.466l-.033.388h.894l.398-2.795c0-1.187-1.035-1.225-1.394-1.225zm-.501 3.247c-.315 0-.397-.24-.397-.383 0-.278.15-.612.894-.612.174.001.192.019.221.024.02.171-.107.971-.718.971zm3.729-2.309c.142 0 .693.045.693.045l.128-.896s-.356-.08-.936-.08c-.751 0-1.513.3-1.513 1.326 0 1.162 1.271 1.044 1.271 1.535 0 .326-.355.353-.629.353-.474 0-.9-.162-.902-.155l-.135.888c.024.007.287.124 1.139.124.228 0 1.535.059 1.535-1.29 0-1.261-1.21-1.012-1.21-1.52 0-.252.197-.33.559-.33zm2.135.113h.538l.129-.954h-.506l.103-.592H173.8c-.022.021-.599 3.338-.599 3.74 0 .6.336.865.809.86.37-.002.659-.104.761-.133l.127-.863c-.07 0-.172.03-.262.03-.353 0-.392-.188-.37-.327l.285-1.76zm4.253-5.54h-1.811a13.45 13.45 0 00-.679 1.021h3.231a9.526 9.526 0 00-.741-1.02zm14.133 11.483a.463.463 0 00-.05-.066.067.067 0 00-.028-.017.104.104 0 00.069-.03.089.089 0 00.011-.113.083.083 0 00-.042-.032.254.254 0 00-.084-.01h-.115v.333h.054v-.141h.031c.019 0 .034.004.042.012a.296.296 0 01.057.077l.029.053h.067l-.041-.066zm-.12-.12h-.066v-.1h.062c.026 0 .043.002.053.005.01.004.017.01.023.018a.048.048 0 01-.009.063c-.011.009-.033.014-.063.014zm-12.723-9.34h-4.345c-.278.525-.462.923-.514 1.021h5.271a9.592 9.592 0 00-.412-1.021zM166.059 9.63l-1 2.967-.052-2.966h-1.481l-.812 4.833h.979l.618-3.644.091 3.644h.699l1.304-3.644-.578 3.644h1.039l.8-4.833h-1.607zm19.582.809c-.697 0-1.229.223-1.229.223l-.148.875s.44-.179 1.106-.179c.378 0 .655.042.655.35 0 .186-.035.255-.035.255s-.297-.024-.437-.024c-.877 0-1.798.373-1.798 1.504 0 .89.605 1.094.979 1.094.716 0 1.025-.465 1.042-.466l-.034.388h.893l.399-2.795c.002-1.187-1.034-1.225-1.393-1.225zm-.499 3.247c-.316 0-.398-.24-.398-.383 0-.278.151-.612.895-.612.173.001.191.019.221.024.019.171-.108.971-.718.971zm7.826.333a.309.309 0 00-.418-.114.306.306 0 00-.115.42.293.293 0 00.114.115.312.312 0 00.306 0 .297.297 0 00.113-.115.29.29 0 00.041-.152.3.3 0 00-.041-.154zm-.042.28a.259.259 0 01-.223.13.259.259 0 01-.222-.385.258.258 0 01.347-.095.263.263 0 01.132.224.256.256 0 01-.034.127z" fill="#fff"/><path d="M192.807 14.278a.522.522 0 00-.049-.066.078.078 0 00-.029-.017.101.101 0 00.069-.03.089.089 0 00.011-.113.1.1 0 00-.041-.032.26.26 0 00-.085-.01h-.116v.332h.054v-.14h.031c.019 0 .035.003.044.01a.348.348 0 01.057.079l.028.052h.067l-.041-.065zm-.119-.122h-.065v-.101h.06a.19.19 0 01.054.005.05.05 0 01.022.018.043.043 0 01.009.027.049.049 0 01-.016.036c-.013.011-.033.015-.064.015zm-3.598-3.669c-.454 0-.792.62-.792.62l.091-.57h-.946l-.633 3.934h1.042c.296-1.68.35-3.044 1.055-2.795.124-.65.244-.902.378-1.176 0 0-.063-.013-.195-.013zm2.618-.851l-.219 1.358s-.382-.528-.98-.528c-.931 0-1.706 1.122-1.706 2.41 0 .832.414 1.646 1.259 1.646.608 0 .945-.424.945-.424l-.044.362h.987l.776-4.826-1.018.002zm-1.287 3.9c-.366 0-.537-.307-.537-.788 0-.787.353-1.306.8-1.306.364 0 .551.251.551.842 0 .536-.265 1.252-.814 1.252z" fill="#fff"/><path d="M195.478 0h-35.232a.955.955 0 00-.956.956v22.16c0 .528.427.956.956.956h35.232a.955.955 0 00.956-.956V.956a.955.955 0 00-.956-.956zm-2.379 17.48a.285.285 0 01-.113.115.313.313 0 01-.307 0 .308.308 0 01.001-.536.33.33 0 01.152-.04.33.33 0 01.151.04.31.31 0 01.116.42zm.69-5.444c.001 5.265-4.265 9.535-9.53 9.536a9.494 9.494 0 01-6.399-2.466 9.494 9.494 0 01-6.391 2.463c-5.262 0-9.532-4.27-9.532-9.532 0-5.242 4.237-9.5 9.471-9.534h.061c2.459 0 4.7.933 6.392 2.463a9.495 9.495 0 016.393-2.465 9.532 9.532 0 019.536 9.53l-.001.005z" fill="#fff"/><path d="M176.884 18.064c.302.37.621.722.975 1.042a.616.616 0 01.024-.02l-.001-.001h.002a9.39 9.39 0 00.968-1.02h-1.968zm1.298-5.232s.134-.658.134-.926c0-.669-.333-1.484-1.447-1.484-1.021 0-1.777 1.1-1.777 2.343 0 1.434.947 1.775 1.754 1.775.744 0 1.072-.167 1.072-.167l.179-.978s-.567.25-1.078.25c-1.09 0-.899-.813-.899-.813h2.062zm-1.31-1.5c.573 0 .467.645.467.696h-1.127c0-.067.107-.695.66-.695zm6.07-.775c.517 0 .932.29.932.29l.165-1.075s-.614-.249-1.143-.249c-1.171 0-2.311 1.017-2.311 2.926 0 1.266.615 2.102 1.827 2.102.342 0 .887-.139.887-.139l.182-1.107s-.497.249-.839.249c-.721 0-1.01-.55-1.01-1.14 0-1.199.62-1.857 1.31-1.857zm-7.331 5.504c.165.355.357.692.563 1.021h3.383c.205-.328.39-.668.555-1.02h-4.501zm4.956-5.573c-.455 0-.791.62-.791.62l.091-.57h-.945l-.633 3.934h1.041c.296-1.68.351-3.044 1.055-2.795.124-.65.243-.902.378-1.177 0 0-.063-.013-.196-.012z" fill="#fff"/><path fill-rule="evenodd" clip-rule="evenodd" d="M213.434 0a1 1 0 00-1 1v22a1 1 0 001 1h35a1 1 0 001-1V1a1 1 0 00-1-1h-35zm18.365 3l-1.997 1.99v-.747h-2.841v2.805l-.518-.517-2.009 2.001 2.105 2.097h-.834v2.83h2.838l-.541.54 2.009 2 2.056-2.048v.83h2.84v-2.934l.519.517 2.008-2.002-2.011-2.004h.81v-2.83h-2.954l.529-.526L231.799 3zm.722 6.47l1.223 1.218h-1.677v1.572l-1.16-1.156-1.094 1.09v-1.565h-1.674l1.208-1.203-1.093-1.09h1.548V6.8l1.101 1.097 1.222-1.218v1.68h1.511l-1.115 1.111zm-9.789 8.617c.157 0 .299.025.427.075.132.05.244.118.337.203a.886.886 0 01.216.303.91.91 0 010 .732.9.9 0 01-.216.298 1.045 1.045 0 01-.337.203c-.128.05-.27.075-.427.075h-1.298V17h2.115v.662h-1.418v.425h.601zm-.024 1.299c.109 0 .2-.035.274-.104a.343.343 0 00.11-.25.328.328 0 00-.11-.246.376.376 0 00-.274-.109h-.577v.709h.577zM224.222 17h2.162v.662h-1.466v.472h1.346v.661h-1.346v.52h1.514v.661h-2.21V17zm5.211 2.976V17h-2.138l-.168 1.937a.525.525 0 01-.135.33.36.36 0 01-.274.119h-.096v.59a.742.742 0 00.178.019c.035.003.072.005.111.005a.83.83 0 00.615-.236c.157-.16.248-.39.274-.685l.12-1.418h.817v2.315h.696zm1.271 0h-.696V17h.696v1.276l.913-1.276h.793l-1.066 1.465 1.091 1.449L233.494 17h.72l1.081 2.976h-.72l-.193-.566h-1.057l-.192.566h-1.444l-.985-1.322v1.322zm3.15-2.15l.336.993h-.672l.336-.992zm2.882-.826c.157 0 .301.027.433.08.131.05.245.123.341.218a.976.976 0 01.307.718.976.976 0 01-.081.397c-.055.122-.13.231-.226.326-.096.091-.21.163-.341.217-.132.05-.276.076-.433.076h-.48v.944h-.697V17h1.177zm0 1.37a.383.383 0 00.274-.104.34.34 0 00.111-.25.326.326 0 00-.111-.246.374.374 0 00-.274-.108h-.48v.708h.48zm2.137 1.606h.696v-2.314h.865V17h-2.426v.662h.865v2.314z" fill="#545472"/><path fill-rule="evenodd" clip-rule="evenodd" d="M266.434 0a1 1 0 00-1 1v22a1 1 0 001 1h35a1 1 0 001-1V1a1 1 0 00-1-1h-35zm2 9a1 1 0 011-1h6a1 1 0 011 1v6a1 1 0 01-1 1h-6a1 1 0 01-1-1V9zm11.503 1.087c.181 0 .346.025.495.075.152.05.282.118.389.203a.913.913 0 01.251.303.806.806 0 010 .732.929.929 0 01-.251.298 1.252 1.252 0 01-.389.203c-.149.05-.314.075-.495.075h-1.503V9h2.448v.661h-1.641v.426h.696zm-.028 1.299a.486.486 0 00.317-.104.323.323 0 00.128-.25.31.31 0 00-.128-.246.472.472 0 00-.317-.109h-.668v.709h.668zM281.662 9h2.504v.661h-1.697v.473h1.557v.661h-1.557v.52h1.752v.661h-2.559V9zm6.034 2.976V9h-2.476l-.194 1.937a.491.491 0 01-.156.33.45.45 0 01-.317.119h-.112v.59a1.007 1.007 0 00.206.019c.041.003.084.005.128.005.293 0 .531-.079.712-.236.182-.16.288-.39.318-.685l.139-1.418h.946v2.315h.806zm1.472 0h-.807V9h.807v1.276L290.225 9h.918l-1.235 1.465 1.264 1.449L292.398 9h.834l1.252 2.976h-.834l-.223-.567h-1.224l-.223.567h-1.671l-1.141-1.323v1.323zm3.647-2.15l.389.993h-.779l.39-.992zM296.152 9c.182 0 .349.027.501.08a1.156 1.156 0 01.657.538.857.857 0 01.094.398.857.857 0 01-.094.397 1.068 1.068 0 01-.262.326 1.29 1.29 0 01-.395.217c-.152.05-.319.075-.501.075h-.556v.945h-.807V9h1.363zm0 1.37a.489.489 0 00.318-.104.323.323 0 00.128-.25.31.31 0 00-.128-.246.475.475 0 00-.318-.109h-.556v.71h.556zm2.474 1.606h.807V9.661h1.001V9h-2.81v.661h1.002v2.315zm-19.75 1.973V13h-.442v1.595h.396l.777-.95v.95h.442V13h-.396l-.777.95zm2.819.646V13.43h-.411v.418h-.487v-.418h-.412v1.165h.412v-.418h.487v.418h.411zm.184-1.165h1.234v.33h-.411v.835h-.412v-.836h-.411v-.329zm2.599.96a.474.474 0 00.082-.137l-.426-.025a.145.145 0 01-.049.038.286.286 0 01-.165.038.313.313 0 01-.191-.056.275.275 0 01-.098-.121h.96l.002-.016.004-.022.006-.036a.548.548 0 00-.052-.289.633.633 0 00-.362-.316.824.824 0 00-.269-.043.81.81 0 00-.28.048.707.707 0 00-.381.322.545.545 0 00.153.67.79.79 0 00.222.13.892.892 0 00.515.015.608.608 0 00.329-.2zm-.749-.61a.303.303 0 01.191-.058.29.29 0 01.189.058.262.262 0 01.101.131h-.579a.267.267 0 01.098-.131zm1.866-.362a.693.693 0 01.457.17.556.556 0 01.143.187.516.516 0 01.055.238.581.581 0 01-.198.428.673.673 0 01-.457.167.662.662 0 01-.256-.051.491.491 0 01-.094-.05V15h-.412v-1.57h.305l.061.114a.521.521 0 01.107-.063.894.894 0 01.125-.043.608.608 0 01.164-.02zm.244.595a.25.25 0 00-.089-.2.312.312 0 00-.216-.079.314.314 0 00-.216.079.251.251 0 00-.089.2c0 .082.03.15.089.202a.32.32 0 00.216.076.319.319 0 00.216-.076.259.259 0 00.089-.202zm1.553.582h.412V13.43h-.412v.418h-.487v-.418h-.411v1.165h.411v-.418h.487v.418zm2.012-.342a.497.497 0 01-.082.137.608.608 0 01-.329.2.897.897 0 01-.515-.015.796.796 0 01-.223-.13.69.69 0 01-.152-.192.545.545 0 01.155-.67.805.805 0 01.506-.177c.096 0 .185.013.268.042a.628.628 0 01.363.317.561.561 0 01.052.288l-.006.036a1.859 1.859 0 01-.006.038h-.96a.28.28 0 00.097.121.318.318 0 00.192.056.286.286 0 00.165-.038.14.14 0 00.048-.038l.427.025zm-.64-.531a.308.308 0 00-.192.058.27.27 0 00-.097.131h.579a.267.267 0 00-.101-.131.295.295 0 00-.189-.058zm2.01-.292h-1.234v.33h.412v.835h.411v-.836h.411v-.329zm1.843-.43v1.595h-.442v-1.24h-.746v1.24h-.442V13h1.63zm1.177.44a.89.89 0 00-.475-.005.56.56 0 00-.183.082.452.452 0 00-.183.281l.411.025a.14.14 0 01.034-.056.229.229 0 01.055-.038.19.19 0 01.094-.02.19.19 0 01.131.045c.035.03.052.075.052.132-.161 0-.295.01-.402.03a.839.839 0 00-.256.082.33.33 0 00-.14.123.31.31 0 00-.04.157.29.29 0 00.122.239c.081.06.198.09.35.09a.706.706 0 00.412-.126l.061.114h.304v-.709a.443.443 0 00-.042-.192.536.536 0 00-.305-.253zm-.137.856a.283.283 0 01-.186.058.209.209 0 01-.125-.032.1.1 0 01-.043-.081c0-.022.005-.043.016-.061a.14.14 0 01.064-.048.506.506 0 01.131-.03 1.5 1.5 0 01.216-.013v.05a.197.197 0 01-.073.157zm1.536-.878a.689.689 0 01.457.17.572.572 0 01.198.425.528.528 0 01-.054.238.598.598 0 01-.144.19.673.673 0 01-.457.167.668.668 0 01-.256-.051.491.491 0 01-.094-.05V15h-.411v-1.57h.304l.061.114a.55.55 0 01.107-.063.894.894 0 01.125-.043.614.614 0 01.164-.02zm.244.595a.25.25 0 00-.088-.2.314.314 0 00-.217-.079.314.314 0 00-.216.079.25.25 0 00-.088.2c0 .082.029.15.088.202a.32.32 0 00.216.076.321.321 0 00.217-.076.258.258 0 00.088-.202zm.649-.238a.516.516 0 00-.055.238c0 .086.018.166.055.24a.65.65 0 00.155.193.772.772 0 00.506.174.764.764 0 00.506-.175.625.625 0 00.152-.192.51.51 0 00.058-.24.586.586 0 00-.21-.43.695.695 0 00-.229-.13.78.78 0 00-.277-.048.801.801 0 00-.506.177.609.609 0 00-.155.193zm.877.025a.27.27 0 01.089.213c0 .09-.03.16-.089.212a.314.314 0 01-.216.079.314.314 0 01-.216-.079.27.27 0 01-.089-.212c0-.09.03-.16.089-.213a.314.314 0 01.216-.079c.085 0 .157.027.216.079zm1.964.795h-.411v-.836h-.32l-.046.456a.402.402 0 01-.146.291.563.563 0 01-.357.102.394.394 0 01-.052-.003.218.218 0 01-.07-.01v-.291h.046c.061 0 .105-.011.131-.033.027-.024.044-.068.052-.132l.076-.709h1.097v1.165zm1.206-.777a.591.591 0 00-.201-.033h-.29v-.355h-.411v1.165h.701a.559.559 0 00.359-.116.404.404 0 00.104-.13.335.335 0 00.039-.16.376.376 0 00-.143-.286.486.486 0 00-.158-.085zm-.156.466a.195.195 0 01-.122.032h-.213v-.253h.213c.053 0 .094.012.122.036a.105.105 0 01.046.09c0 .04-.015.07-.046.095zm-28.06-1.763h-.773l.558-.555-.505-.503h.714v-.71l.509.507.564-.563v.776h.697l-.514.513.564.562h-.774v.726l-.535-.533-.505.502v-.722zm2.351.562v1.354h-1.311v-.382l-.949.945-.927-.924.25-.248h-1.31V12.52h.385l-.972-.968.927-.923.24.238V9.574h1.31v.345l.922-.919.927.924-.244.243h1.364v1.306h-.374l.928.925-.927.924-.239-.239z" fill="#fff"/><path fill-rule="evenodd" clip-rule="evenodd" d="M319.434 0a1 1 0 00-1 1v22a1 1 0 001 1h35a1 1 0 001-1V1a1 1 0 00-1-1h-35zm17.983 3.929h.001-.001zm0 0l.037.023c.107.06.17.26.237.472.032.1.064.203.103.296.129.313.267.713.402 1.108h.001c.103.301.206.6.304.857l.036.087c.046.103.095.214.077.34-.128.082-.62.069-.934.06-.077-.002-.143-.004-.191-.004-.104 0-.223.003-.348.006-.299.006-.63.013-.862-.012-.064-.15.033-.4.145-.688a4.56 4.56 0 00.187-.55c.021-.087.053-.156.09-.233.023-.049.047-.1.071-.162.063-.16.116-.321.169-.48.038-.115.076-.228.116-.34l.225-.609.018-.055c.021-.07.026-.088.117-.116zm-2.235 6.237l-1.507-.596c.043-.202.165-.5.271-.759.044-.106.084-.206.115-.288l1.946-5.105.063-.173c.211-.586.448-1.241 1.357-1.245.902-.003 1.135.632 1.381 1.304v.001l.05.134 1.944 5.103c.029.078.068.173.11.276.105.258.228.561.263.742-.085.062-1.379.57-1.504.59l-.605-1.682-3.279.005-.605 1.693zm-.598 3.82l-.941-.005c-.215 0-.213-.044-.206-.19l.003-.09-.006-.972v-.016c0-.113 0-.166.026-.19.024-.022.067-.021.149-.02h7.203c.038 0 .085-.003.135-.005.161-.009.357-.019.442.037.062.1.059 1.344-.006 1.418-.084.07-4.706.044-6.799.033zm-.66 6.304v-1.547c.862.1.88 1.431 0 1.547zm-3.938-.693c.299-.027.755-.065.845.205.126.379-.167.491-.489.491l-.217.001-.139-.008v-.69zm-.702 1.297c.348.02 1.096.032 1.423-.006 1.026-.122 1.091-1.307.517-1.723-.255-.185-.514-.184-.799-.182-.138 0-.282.001-.435-.019 0-.056.003-.125.006-.199.009-.219.019-.485-.034-.63l-.69.005.012 2.754zm-3.05-.01c1.075.181 1.074-.921 1.073-1.788 0-.11 0-.218.002-.317l.691-.002v2.12l.719.001v-2.762l-2.058.007-.008.294c-.013.501-.035 1.383-.075 1.555-.051.215-.113.226-.343.268l-.001.623zm23.94-1.42c.073.104.307.357.554.624.307.331.635.686.706.81-.219 0-.382.004-.506.008-.239.006-.334.008-.406-.032a.578.578 0 01-.15-.15 4.258 4.258 0 00-.372-.405c-.044-.043-.108-.118-.178-.2-.123-.145-.265-.312-.347-.357l-.002 1.136h-.718v-2.762h.718l.001 1.068.747-.803c.244-.296.312-.293.769-.274.098.005.213.01.351.012-.049.1-.104.15-.166.208a1.253 1.253 0 00-.122.125c-.071.085-.198.221-.334.367-.225.24-.475.507-.545.625zm-3.685.344c.06 0 .138-.003.225-.005.268-.008.62-.019.774.03l.002 1.066h.717v-2.763h-.718l-.006 1.029-.991.002-.003-1.024-.715-.006.001 2.762.714-.01v-1.081zm-2.029-.119c.028.284-.034.497-.224.608-.59.347-1.063-.406-.557-.582.132-.045.589-.031.771-.026h.01zm-.917-.75c.115-.357.891-.478.925.178a5.355 5.355 0 01-.396.004h-.001c-.324-.004-.651-.009-.907.124-.302.157-.507.5-.404.982.083.383.331.62.72.706.55.123.822-.105.974-.232a.537.537 0 01.091-.069c.24.236.386.302.821.25v-.565c-.031-.07-.06-.075-.086-.079-.033-.005-.061-.01-.086-.134l-.009-1.063c-.072-1.36-2.21-1.372-2.375-.102h.733zm-6.274.75c.029.274-.03.484-.201.596-.577.379-1.105-.39-.578-.57.124-.042.472-.034.684-.029l.095.002zm-.915-.75c.122-.361.883-.473.924.18-.106.004-.217.002-.33 0-.347-.007-.707-.013-.974.127-.301.158-.503.5-.406.974.078.38.345.632.72.713.477.103.72-.024 1-.255l.009-.006.012-.01.044-.03.032.03c.205.19.288.266.792.223v-.568c-.039-.08-.07-.078-.095-.077-.031.002-.056.003-.081-.136l-.008-1.06c-.023-.436-.235-.739-.536-.89-.529-.265-1.707-.225-1.84.785h.737zm-12.629.503c.039-.183.489-1.497.555-1.56l.494 1.56h-1.049zm-.24.668l1.518-.001.244.788.838.002c-.119-.482-.561-1.731-.874-2.62a70.31 70.31 0 01-.211-.598l-.008-.023c-.139-.4-.239-.688-.759-.655-.44.027-.543.332-.666.695l-.021.06-.753 2.103-.056.146c-.107.279-.253.657-.303.89l.781-.004.27-.783zm16.797.092l-.01-1.003c.083 0 .172-.003.264-.006.533-.017 1.137-.038 1.132.52-.006.537-.63.514-1.137.496a6.85 6.85 0 00-.249-.007zm-.761.697h1.482c.952 0 1.616-.498 1.402-1.498-.187-.875-1.081-.874-2.005-.872h-.111l-.013-.784 1.857-.001.004-.675c-.172-.054-1.456-.038-2.184-.029l-.432.005v3.854zm-6.317-2.163v1.558c-.877-.129-.883-1.416 0-1.558zm-.005-.72a.143.143 0 01-.025.04c-.018.017-.048.023-.138.04l-.063.012c-.457.09-.826.362-1.016.777-.376.82-.004 1.937 1.242 2.075l.005 1.03.72.01.002-1.036c.807-.124 1.361-.564 1.372-1.428.012-.887-.554-1.344-1.371-1.465l-.004-1.027-.719.002v.961l-.005.01z" fill="#545472"/></svg>