<svg width="31" height="34" fill="none" xmlns="http://www.w3.org/2000/svg"><path d="M12.967 6.114h2.948v3.93h2.303a14.39 14.39 0 0010.184-4.218l.695-.695-.694-.695A14.397 14.397 0 0018.218.218h-2.303v3.93h-2.948V2.183H1.174v5.896h11.793V6.114zm4.913-3.931c.2.034 4.475-.371 8.38 2.948a12.345 12.345 0 01-8.042 2.948h-.338V2.183zM7.07 6.113H3.14V4.149h3.93v1.966zm3.931 0H9.036V4.149H11v1.966z" fill="#fff"/><path stroke="#fff" stroke-width="2" d="M14 16h10v6H14zM1 28h12v5H1zm12 0h11v5H13zm-4-5h11v5H9zm11 0h10v5H20z"/></svg>